<mxfile host="app.diagrams.net" modified="2023-05-04T02:09:03.434Z" agent="Mozilla/5.0 (Windows NT 10.0; Win64; x64) AppleWebKit/537.36 (KHTML, like Gecko) Chrome/113.0.0.0 Safari/537.36" version="21.2.7" etag="tlGkdrb6ko7fCGGCv_2y" type="github">
  <diagram name="第 1 页" id="C8qZpdCDZgRlxiLZ2ows">
    <mxGraphModel>
      <root>
        <mxCell id="0" />
        <mxCell id="1" parent="0" />
      </root>
    </mxGraphModel>
  </diagram>
</mxfile>
